<svg width="20" height="20" class="icon" viewBox="0 0 20 20" fill="none" xmlns="http://www.w3.org/2000/svg">
                    <path d="M2.75901 14.7704C3.79697 13.8478 4.19551 12.4308 4.16941 11.0423C4.1681 10.9728 4.16744 10.9031 4.16744 10.8333C4.16744 7.24265 5.90218 4.09402 8.50721 2.33036C9.40877 1.71999 10.5927 1.71999 11.4943 2.33035C14.0994 4.094 15.8341 7.24265 15.8341 10.8333C15.8341 10.9031 15.8334 10.9728 15.8321 11.0423C15.806 12.4308 16.2046 13.8478 17.2426 14.7704C17.3923 14.9035 17.4261 15.1244 17.323 15.2963L15.2753 18.709C15.1569 18.9064 14.901 18.9704 14.7037 18.8519C14.6745 18.8344 14.6475 18.8134 14.6234 18.7893L12.7448 16.9107C12.5886 16.7544 12.3766 16.6666 12.1556 16.6666H7.84596C7.62494 16.6666 7.41298 16.7544 7.2567 16.9107L5.37813 18.7893C5.21541 18.952 4.95159 18.952 4.78888 18.7893C4.76478 18.7652 4.74374 18.7383 4.72622 18.709L2.67853 15.2963C2.57544 15.1244 2.60925 14.9035 2.75901 14.7704ZM10.0007 10.8333C10.9212 10.8333 11.6674 10.0871 11.6674 9.1666C11.6674 8.24616 10.9212 7.49997 10.0007 7.49997C9.08033 7.49997 8.33408 8.24616 8.33408 9.1666C8.33408 10.0871 9.08033 10.8333 10.0007 10.8333Z" fill="url(#paint0_linear_156_862)"></path>
                    <defs>
                    <linearGradient id="paint0_linear_156_862" x1="0.000488705" y1="-7.99997" x2="26.0434" y2="4.39566" gradientUnits="userSpaceOnUse">
                    <stop offset="0.181053" stop-color="#094CFF"></stop>
                    <stop offset="1" stop-color="#9D4CF3"></stop>
                    </linearGradient>
                    </defs>
                  </svg>