<?xml version="1.0" encoding="UTF-8"?>
<svg version="1.1" xmlns="http://www.w3.org/2000/svg" width="25" height="26">
<path d="M0 0 C1.13199353 0.9080162 2.25532363 1.82683826 3.375 2.75 C4.00148438 3.26046875 4.62796875 3.7709375 5.2734375 4.296875 C7.08312318 6.08199481 8.00117455 7.67949644 9 10 C7.71451591 11.33929505 6.42141845 12.67128643 5.125 14 C4.40570313 14.7425 3.68640625 15.485 2.9453125 16.25 C1 18 1 18 -1 18 C-0.37611108 14.38144425 0.1709277 13.8290723 3 11 C-1.29 10.67 -5.58 10.34 -10 10 C-9.67 9.01 -9.34 8.02 -9 7 C-3.555 6.505 -3.555 6.505 2 6 C1.01 5.01 0.02 4.02 -1 3 C-0.67 2.01 -0.34 1.02 0 0 Z " fill="#FFFFFF" transform="translate(12,4)"/>
</svg>
