<svg width="20" height="20" class="icon" viewBox="0 0 20 20" fill="none" xmlns="http://www.w3.org/2000/svg">
                    <path d="M1.70703 10.8333H6.27197C6.42113 13.5574 7.2971 16.0878 8.70926 18.2341C4.98894 17.6559 2.08268 14.6169 1.70703 10.8333ZM1.70703 9.1666C2.08268 5.38309 4.98894 2.34399 8.70926 1.76587C7.2971 3.91215 6.42113 6.44261 6.27197 9.1666H1.70703ZM18.2914 9.1666H13.7264C13.5773 6.44261 12.7013 3.91215 11.2892 1.76587C15.0095 2.34399 17.9158 5.38309 18.2914 9.1666ZM18.2914 10.8333C17.9158 14.6169 15.0095 17.6559 11.2892 18.2341C12.7013 16.0878 13.5773 13.5574 13.7264 10.8333H18.2914ZM7.9415 10.8333H12.0569C11.9139 13.1524 11.1781 15.311 9.99918 17.1596C8.82026 15.311 8.08451 13.1524 7.9415 10.8333ZM7.9415 9.1666C8.08451 6.84759 8.82026 4.68895 9.99918 2.84036C11.1781 4.68895 11.9139 6.84759 12.0569 9.1666H7.9415Z" fill="url(#paint0_linear_636_35)"></path>
                    <defs>
                    <linearGradient id="paint0_linear_636_35" x1="-13.5" y1="-10.5" x2="18" y2="26" gradientUnits="userSpaceOnUse">
                    <stop offset="0.18" stop-color="#094CFF"></stop>
                    <stop offset="1" stop-color="#9D4CF3"></stop>
                    </linearGradient>
                    </defs>
                  </svg>