<svg width="20" height="20" class="icon" viewBox="0 0 20 20" fill="none" xmlns="http://www.w3.org/2000/svg">
                    <path d="M1.66602 18.3333C1.66602 14.6513 4.65078 11.6666 8.33268 11.6666C12.0146 11.6666 14.9993 14.6513 14.9993 18.3333H1.66602ZM8.33268 10.8333C5.57018 10.8333 3.33268 8.59575 3.33268 5.83325C3.33268 3.07075 5.57018 0.833252 8.33268 0.833252C11.0952 0.833252 13.3327 3.07075 13.3327 5.83325C13.3327 8.59575 11.0952 10.8333 8.33268 10.8333ZM14.4683 12.6943C17.0395 13.3513 18.9726 15.6028 19.1523 18.3333H16.666C16.666 16.1584 15.8328 14.1782 14.4683 12.6943ZM12.7828 10.7973C14.1433 9.57675 14.9993 7.80498 14.9993 5.83325C14.9993 4.65214 14.6922 3.54276 14.1534 2.58064C16.0621 2.96156 17.4993 4.64546 17.4993 6.66659C17.4993 8.96867 15.6348 10.8333 13.3327 10.8333C13.1463 10.8333 12.9627 10.821 12.7828 10.7973Z" fill="url(#paint0_linear_636_38)"></path>
                    <defs>
                    <linearGradient id="paint0_linear_636_38" x1="10.4092" y1="0.833252" x2="10.4092" y2="18.3333" gradientUnits="userSpaceOnUse">
                    <stop offset="0.18" stop-color="#094CFF"></stop>
                    <stop offset="1" stop-color="#9D4CF3"></stop>
                    </linearGradient>
                    </defs>
                  </svg>